<svg width="19" height="18" viewBox="0 0 19 18" fill="none" xmlns="http://www.w3.org/2000/svg">
<path fill-rule="evenodd" clip-rule="evenodd" d="M8.375 2.8125C5.57906 2.8125 3.3125 5.07906 3.3125 7.875C3.3125 10.6709 5.57906 12.9375 8.375 12.9375C9.77313 12.9375 11.038 12.3715 11.9547 11.4547C12.8715 10.538 13.4375 9.27313 13.4375 7.875C13.4375 5.07906 11.1709 2.8125 8.375 2.8125ZM2.1875 7.875C2.1875 4.45774 4.95774 1.6875 8.375 1.6875C11.7923 1.6875 14.5625 4.45774 14.5625 7.875C14.5625 9.38087 14.024 10.7618 13.1299 11.8345L16.6477 15.3523C16.8674 15.5719 16.8674 15.9281 16.6477 16.1477C16.4281 16.3674 16.0719 16.3674 15.8523 16.1477L12.3345 12.6299C11.2618 13.524 9.88087 14.0625 8.375 14.0625C4.95774 14.0625 2.1875 11.2923 2.1875 7.875Z" fill="white"/>
</svg>
