<svg width="24" height="25" viewBox="0 0 24 25" fill="none" xmlns="http://www.w3.org/2000/svg">
<path fill-rule="evenodd" clip-rule="evenodd" d="M10.5 4.25C6.77208 4.25 3.75 7.27208 3.75 11C3.75 14.7279 6.77208 17.75 10.5 17.75C12.3642 17.75 14.0506 16.9953 15.273 15.773C16.4953 14.5506 17.25 12.8642 17.25 11C17.25 7.27208 14.2279 4.25 10.5 4.25ZM2.25 11C2.25 6.44365 5.94365 2.75 10.5 2.75C15.0563 2.75 18.75 6.44365 18.75 11C18.75 13.0078 18.032 14.8491 16.8399 16.2793L21.5303 20.9697C21.8232 21.2626 21.8232 21.7374 21.5303 22.0303C21.2374 22.3232 20.7626 22.3232 20.4697 22.0303L15.7793 17.3399C14.3491 18.532 12.5078 19.25 10.5 19.25C5.94365 19.25 2.25 15.5563 2.25 11Z" fill="#6B7276"/>
</svg>
